<svg xmlns="http://www.w3.org/2000/svg" viewBox="0 0 495.323 206.089" class="signature" aria-label="Kyle Halleman signature" role="img"><path d="M35.474 265.052c-.961-.574-2.107-1.756-2.548-2.628-1.004-1.983-1.068-2.412-1.061-7.055.007-4.45.14-6.108.9-11.113 1.094-7.21 3.377-16.241 6.533-25.84 2.288-6.959 6.86-19.62 9.557-26.46l.695-1.763-.402-.441a4.77 4.77 0 0 1-.6-.826c-.257-.5-.253-1.737.007-2.228.404-.766 1.436-1.888 2.596-2.825.79-.639 1.25-1.155 1.38-1.552a634.96 634.96 0 0 1 2.142-5.975 6064.222 6064.222 0 0 0 5.766-16.051c2.1-5.87 4.397-12.22 5.106-14.111 3.912-10.452 10.125-25.519 14.691-35.63 2.422-5.364 9.154-18.827 12.568-25.136a627.249 627.249 0 0 0 4.18-7.85c.83-1.6 1.985-3.823 2.569-4.938.613-1.172.92-1.912.726-1.752-3.62 2.99-5.325 4.681-9.949 9.863-1.6 1.794-4.934 5.484-7.408 8.202-10.497 11.529-21.97 24.985-28.427 33.34-6.347 8.214-15.885 21.959-21.052 30.34-.958 1.551-3.387 5.708-5.4 9.237l-3.657 6.415.523.44c1.492 1.256 1.38 3.319-.244 4.523-1.086.804-4.196.494-5.427-.542-.69-.58-1.253-1.84-1.255-2.803-.002-1.452.465-2.594 2.588-6.335 6.571-11.581 8.411-14.646 12.442-20.726 6.168-9.301 13.153-19.121 17.878-25.135 6.858-8.728 17.587-21.257 28.322-33.074 2.865-3.153 6.195-6.844 7.399-8.202 4.842-5.459 7.857-8.247 14.43-13.345 4.214-3.267 4.979-3.721 6.292-3.733 2.323-.022 3.515 2.067 2.673 4.685-.613 1.904-5.759 12.053-11.84 23.353-7.81 14.51-12.274 23.858-18.688 39.136-5.231 12.461-7.872 19.336-13.924 36.247-2.1 5.87-4.08 11.402-4.4 12.293l-.582 1.622.995-.866.995-.866.568-2.433c.742-3.18 1.266-4.267 2.69-5.584 1.205-1.115 1.955-1.52 2.816-1.52.673 0 1.826.573 2.186 1.088.265.377.475.183 9.493-8.785 5.072-5.043 11.231-10.98 13.687-13.19 5.344-4.812 6.247-5.663 15.996-15.09 18-17.406 20.428-19.714 28.398-26.995 7.732-7.062 10.542-9.727 16.399-15.55 4.732-4.705 5.095-4.96 6.533-4.557 1.765.495 2.6 2.513 1.718 4.15-.234.433-10.137 10.242-13.714 13.583-1.455 1.359-4.867 4.493-7.583 6.965-6.587 5.995-12.207 11.338-26.811 25.485-10.613 10.28-11.61 11.222-17.64 16.657-2.523 2.274-9.11 8.626-14.64 14.117-5.53 5.49-11.138 11.023-12.462 12.293l-2.407 2.31-.296 1.918c-.162 1.054-.84 5.211-1.506 9.237-1.49 9.004-1.746 10.903-1.883 13.962-.12 2.654.06 4.013.725 5.512.794 1.79 2.148 2.813 4.014 3.032 2.148.252 3.78-.687 7.2-4.142 4.34-4.384 7.221-8.075 13.296-17.03 3.128-4.613 5.654-8.645 7.962-12.71 1.02-1.796 4.65-9.812 6.54-14.444 1.124-2.751 1.509-3.356 2.417-3.796.957-.463 1.58-.467 2.493-.014.997.493 1.392 1.108 1.478 2.3.066.91-.023 1.212-1.014 3.493-.598 1.373-1.288 3.032-1.534 3.686-.771 2.052-2.364 5.7-3.333 7.636-1.836 3.666-5.85 13.783-7.946 20.026-1.284 3.826-2.728 9.053-2.713 9.824.007.342.1.29.72-.401 3.279-3.657 6.793-9.06 13.827-21.255 7.812-13.546 10.975-19.398 12.965-23.99 2.392-5.517 3.366-7.222 4.446-7.78.599-.31 1.767-.357 2.441-.099.656.25 1.532 1.326 1.754 2.15.39 1.45-.508 4.816-4.943 18.518-3.132 9.676-8.484 27.594-12.426 41.603-.228.81-.354 1.406-.281 1.323.24-.273 6.439-9.073 8.741-12.41 2.795-4.052 7.78-11.584 9.946-15.027l1.63-2.591.77-3.345c3.733-16.213 10.975-34.637 20.64-52.504 3.582-6.622 8.691-15.66 13.113-23.195 1.509-2.57 3.078-5.256 3.487-5.967 1.179-2.048 1.742-2.5 3.12-2.5 1.406 0 2.769 1.325 2.769 2.691 0 .433-.468 1.947-1.233 3.987-.678 1.809-1.95 5.528-2.825 8.265-3.822 11.948-7.186 20.03-16.318 39.209-2.01 4.22-4.761 10.054-6.115 12.965-3.563 7.662-6.55 13.347-10.288 19.579-1.79 2.983-1.801 3.009-2.18 5.027-.606 3.218-.89 5.839-1.017 9.355-.131 3.655-.046 4.506.466 4.668.56.178 1.6-.444 2.821-1.685 1.464-1.487 2.74-3.289 4.682-6.605 2.133-3.644 6.714-12.527 6.96-13.494 2.116-8.331 9.023-25.975 12.982-33.161 2.193-3.983 3.335-5.242 5.035-5.558.857-.159 2.074.38 2.636 1.17.62.869.582 2.862-.093 4.917-1.931 5.877-7.022 17.833-12.506 29.369l-3.103 6.526-.356 2.185c-.4 2.462-.652 6.503-.466 7.494.092.491.242.7.596.836.788.3 3.22.394 4.306.168 1.715-.357 4.898-2.455 10.283-6.776 2.894-2.322 4.305-3.53 8.524-7.293 1.518-1.354 2.128-1.607 3.33-1.382.868.163 1.923 1.218 2.086 2.087.233 1.244-.027 1.868-1.299 3.116-4.41 4.325-13.515 11.611-17.392 13.918-2.926 1.742-3.87 2.014-7.067 2.034-2.867.019-3.976-.167-5.462-.911-1.417-.71-2.179-1.433-2.765-2.623l-.542-1.102-1.505 2.503c-3.192 5.31-6.155 8.457-8.94 9.499-1.397.522-3.501.546-4.848.055-1.667-.608-3.13-2.251-3.761-4.227-.094-.292-.222-1.747-.285-3.234l-.114-2.703-2.646 3.926c-2.798 4.152-5.556 8.09-12.559 17.934-2.366 3.326-5.202 7.374-6.303 8.996-1.939 2.855-2.04 3.051-3.178 6.187-2.673 7.365-7.735 17.865-10.61 22.01-2.72 3.92-4.367 5.007-6.295 4.155-.948-.42-1.696-1.429-1.837-2.476-.12-.896.351-3.044 1.09-4.967.828-2.158 3.643-7.708 5.966-11.762 1.705-2.977 2.93-4.996 7.145-11.786.594-.956 1.922-5.25 4.883-15.787a1431.184 1431.184 0 0 1 7.406-25.555c1.32-4.402 2.375-8.028 2.346-8.058-.03-.03-1.199 1.946-2.598 4.389-5.582 9.743-9.316 15.717-12.424 19.876-1.554 2.079-4.113 4.687-5.4 5.503-1.993 1.264-3.94 1.538-5.563.782-1.787-.832-2.49-2.335-2.316-4.95.103-1.55.532-3.95 1.098-6.133.151-.584.243-1.094.204-1.133-.039-.04-.754.83-1.59 1.93-2.125 2.802-5.691 6.918-7.896 9.112-4.44 4.42-8.159 5.925-12.423 5.03-3.936-.826-6.805-3.687-8.225-8.201-.38-1.213-.415-1.617-.404-4.85.007-2.305.118-4.324.32-5.822.276-2.058 2.105-13.358 2.317-14.325.067-.302-.399-.02-2.077 1.255l-2.162 1.646-2.69 7.035c-4.56 11.93-8.027 21.589-10.154 28.29-4.422 13.924-6.64 25.208-6.644 33.779 0 2.955.165 3.658 1.056 4.49.942.881 1.293 1.655 1.185 2.614-.226 2.01-2.476 3.16-4.184 2.138zm115.261-113.997c4.383-9.241 8.064-17.249 7.971-17.341-.099-.1-4.4 8.294-6.007 11.722-1.9 4.051-4.966 11.13-6.055 13.977-.4 1.046.597-.99 4.091-8.358zm64.007 96.197c-1.361-.692-1.719-1.66-1.46-3.957.354-3.13 1.417-7.525 3.437-14.208.513-1.698 1.697-5.627 2.632-8.732 3.342-11.097 4.287-13.843 9.189-26.723 4.387-11.525 10.143-27.037 10.063-27.117-.084-.084-7.3 3.516-9.895 4.937-2.455 1.345-8.827 5.156-11.798 7.056l-2.274 1.454-1.927 4.851c-1.06 2.668-3.756 9.613-5.991 15.434a3218.735 3218.735 0 0 1-6.937 17.904c-6.155 15.679-6.241 15.92-6.431 17.871-.147 1.51-.427 2.048-1.417 2.722-1.223.832-3.112.319-3.885-1.056-.355-.631-.386-.874-.304-2.316.135-2.37 0-1.988 6.833-19.426 1.824-4.657 5.146-13.23 7.38-19.05 2.235-5.821 4.308-11.172 4.605-11.89.298-.72.521-1.32.496-1.337a95.44 95.44 0 0 0-.688-.416c-.865-.52-1.27-1.41-1.174-2.578.096-1.146.51-1.73 1.64-2.302.485-.247 1.402-.815 2.037-1.264 1.105-.781 1.18-.882 1.742-2.333 5.408-13.975 12.603-31.192 18.14-43.409 1.321-2.913 8.328-17.987 11.766-25.312l2.152-4.586c.402-.866-4.872 5.44-8.311 9.937-4.441 5.807-17.719 24.527-22.853 32.22-4.01 6.008-15.983 25.132-17.58 28.079l-.783 1.444.466.704c.657.993.748 1.93.278 2.878-.514 1.04-1.116 1.435-2.315 1.522-2.789.201-4.899-2.227-4.384-5.046.376-2.06.837-2.883 8.716-15.558 9.05-14.56 10.926-17.42 18.457-28.134 12.57-17.886 17.431-24.384 22.893-30.603 2.81-3.2 3.742-4.33 7.36-8.92 3.197-4.058 4.352-5.015 6.053-5.015 2.491 0 3.733 2.363 2.908 5.531-.464 1.784-2.27 5.864-7.933 17.929-11.33 24.137-16.562 35.804-22.62 50.447-1.776 4.296-4.812 11.91-4.812 12.073 0 .043 1.408-.764 3.129-1.792 3.675-2.195 9.095-5.06 15.618-8.253l4.683-2.293.656-1.675c8.367-21.399 18.326-43.787 26.513-59.6 7.494-14.477 10.592-20.72 12.643-25.477.716-1.659.736-1.755.481-2.266-.655-1.313.704-4.738 2.206-5.56.938-.515 1.542-.62 2.332-.408 1.62.437 2.452 1.986 2.216 4.127-.342 3.111-3.455 10.085-11.109 24.89-8.801 17.023-13.858 27.66-20.211 42.508-3.795 8.87-8.33 19.862-8.235 19.958.023.023 1.191-.391 2.596-.921 3.175-1.198 3.596-1.273 4.619-.82 2.437 1.078 2.22 4.317-.354 5.261-2.684.985-6.703 2.602-8.154 3.281l-1.681.787-1.115 2.985c-.613 1.641-2.845 7.628-4.96 13.303a2717.531 2717.531 0 0 1-6.44 17.11c-4.07 10.648-5.676 15.262-7.952 22.842-.728 2.426-1.872 6.196-2.542 8.379-2.714 8.843-4.026 14.048-4.323 17.147-.238 2.481-2.137 3.774-4.087 2.782zm25.398-22.641c-1.073-.512-1.873-1.509-2.261-2.817-.342-1.15-.346-5.358-.008-7.877.614-4.581 2.32-10.336 5.191-17.505 3.038-7.587 9.987-21.18 13.602-26.608 2.548-3.826 6.034-7.68 8.402-9.287 2.854-1.939 4.882-2.566 8.357-2.586 1.749-.01 2.685.068 3.527.295 2.828.761 5.138 2.432 6.732 4.868.983 1.502 1.251 2.322 1.049 3.209-.214.936-.668 1.518-1.501 1.92-1.327.643-2.439.373-3.481-.845l-.62-.724-.308.974c-.429 1.361-7.34 14.941-13.37 26.27-1.642 3.083-3.804 8.923-5.703 15.402-1.04 3.55-1.502 5.816-1.617 7.944l-.109 2.005.6-.13c3.057-.658 7.294-6.089 15.901-20.377 1.96-3.252 4.165-7.221 7.104-12.782 1.436-2.717 5.09-9.583 8.121-15.258 4.578-8.574 5.809-11.035 7.276-14.552 5.878-14.094 9.694-22.375 17.027-36.954 9.692-19.266 14.704-28.564 20.633-38.276 3.305-5.414 3.199-5.268 4.13-5.68 1.374-.608 2.9-.058 3.589 1.294.725 1.421.415 2.246-3.2 8.541-2.627 4.573-8.295 15.13-9.987 18.6a591.525 591.525 0 0 0-3.781 7.99c-3.994 8.602-16.006 33.286-21.861 44.926-2.653 5.272-4.109 8.406-5.205 11.2-7.334 18.695-10.843 30.386-11.139 37.107l-.104 2.358.394-.21c.729-.39 3.048-2.728 4.47-4.506 4.606-5.756 11.437-16.393 21.242-33.073 4.211-7.164 11.06-19.123 12.576-21.96 2.23-4.172 6.374-11.043 7.218-11.966.71-.779 1.37-1.05 2.33-.957 1.106.106 1.97.764 2.366 1.8.53 1.386.735.95-5.084 10.805-1.615 2.736-3.498 6.096-4.185 7.467-6.312 12.6-14.314 31.854-17.472 42.04-.992 3.2-1.844 7.127-1.685 7.762.14.556.52.633 3.749.758 6.205.242 9.834-1.102 31.286-11.582 33.52-16.377 55.2-25.605 70.644-30.071 24.983-7.225 62.851-12.5 90.957-12.67 5.417-.034 5.6-.024 6.085.334 1.194.88 1.592 2.194 1.054 3.482-.314.75-1.21 1.494-1.926 1.597-.312.045-3.98.17-8.152.275-16.748.426-30.627 1.694-48.507 4.431-16.993 2.602-30.58 5.598-42.51 9.374-14.091 4.46-35.015 13.603-68.439 29.906-3.59 1.75-8.312 3.994-10.495 4.985-10.283 4.669-13.593 5.643-19.16 5.64-4.01-.001-6.666-.558-8.336-1.748-.726-.516-1.562-2.222-1.802-3.676-.365-2.214.37-6.025 2.296-11.885.483-1.47.813-2.602.735-2.515-.079.087-.8 1.19-1.602 2.451-5.174 8.137-10.213 14.77-12.812 16.867-1.78 1.434-2.171 1.676-3.374 2.08-2.232.753-4.796.402-6.1-.833-1.118-1.06-1.359-1.965-1.358-5.107 0-2.99.21-4.909.904-8.268.283-1.37.515-2.559.515-2.64 0-.082-.779 1.199-1.73 2.845-4.382 7.587-9.87 16.064-12.636 19.516-2.615 3.264-5.19 5.425-7.504 6.299-.965.363-1.475.436-3.178.448-1.873.013-2.103-.023-2.998-.47-1.864-.928-2.464-2.394-2.468-6.026l-.002-2.276-1.18 1.659c-2.489 3.502-4.905 6.093-6.404 6.868-.6.31-1.161.427-2.293.476-1.313.057-1.614.011-2.415-.371zm4.5-7.593c4.058-4.924 13.03-19.744 15.297-25.27 1.726-4.203 4.469-10.09 8-17.166 3.72-7.456 4.648-9.167 5.634-10.39l.627-.778-1.314.1c-.722.057-1.843.295-2.49.531-3.38 1.233-7.355 5.713-11.507 12.968-8.031 14.036-14.078 28.672-15.36 37.183-.247 1.634-.364 4.307-.189 4.307.043 0 .628-.668 1.302-1.485z" transform="translate(-17.983 -59.342)"/></svg>